<?xml version="1.0" encoding="UTF-8"?>
<svg id="Calque_2" data-name="Calque 2" xmlns="http://www.w3.org/2000/svg" viewBox="0 0 155.85 40.55">
  <defs>
    <style>
      .cls-1 {
        fill: #1e1e1c;
      }
    </style>
  </defs>
  <g id="Calque_1-2" data-name="Calque 1">
    <g>
      <path class="cls-1" d="m20.27,8.94h0s6.9-.01,6.9-.01V0h-6.9C9.09,0,0,9.09,0,20.27s9.09,20.27,20.27,20.27h0s6.9-.01,6.9-.01v-8.92h-6.9c-6.25,0-11.34-5.08-11.34-11.34s5.09-11.34,11.34-11.34Z"/>
      <path class="cls-1" d="m54.34.39c-11.18,0-20.27,9.09-20.27,20.27v19.88h8.92v-8.59h22.7v8.59h8.92v-19.88C74.61,9.49,65.52.39,54.34.39Zm11.35,24.66h-22.7v-4.39h.01c0-6.25,5.09-11.34,11.34-11.34s11.34,5.09,11.34,11.34h.01v4.39Z"/>
      <polygon class="cls-1" points="116.51 .02 103.88 .02 90.44 13.47 90.44 .02 81.51 .02 81.51 40.55 90.44 40.55 90.44 28.81 102.16 40.53 114.78 40.53 95.39 21.14 116.51 .02"/>
      <path class="cls-1" d="m155.84,17.91c-1.18-10.07-9.75-17.91-20.13-17.91-11.18,0-20.27,9.09-20.27,20.27s9.09,20.27,20.27,20.27h6.9v-8.92h-6.9c-4.64-.01-8.64-2.82-10.39-6.82h30.53v-6.9h0Zm-31.22,0c1.09-5.12,5.65-8.97,11.09-8.97s10,3.85,11.09,8.97h-22.17Z"/>
    </g>
  </g>
</svg>