<?xml version="1.0" encoding="UTF-8"?>
<svg xmlns="http://www.w3.org/2000/svg" xmlns:xlink="http://www.w3.org/1999/xlink" width="809" height="459">
  <path fill="#1A5042" transform="translate(9.18523 -0.00228882)" d="M792.75287 256.80179C780.46558 266.31281 761.44348 271.9664 741.89142 271.9664C733.8443 271.9664 726.3819 270.94421 720.87128 269.04285C719.6051 268.60117 718.57874 267.91971 717.70374 267.04474L694.39099 243.39128C693.27209 242.22186 692.54016 240.85474 692.1994 239.2941C690.15082 230.12802 687.80774 221.98413 685.0777 214.95918C671.81445 233.14832 652.06464 243.39128 630.02234 243.39128C619.73309 243.39128 609.54059 240.85474 601.10223 236.17284C570.672 261.97165 545.65564 267.91971 528.10168 254.55969C516.68927 267.18777 503.22833 274.06549 489.86832 274.06549C482.1619 274.06549 474.6532 271.77292 468.01947 267.38547C455.00015 279.57608 440.95447 286.30655 428.12869 286.30655C419.45056 286.30655 411.89139 283.28204 406.33032 277.62424L390.04254 261.14294C379.26535 283.13483 358.19891 304.05402 332.01312 306.44754L351.37167 326.09637C363.3183 338.24069 371.51266 352.13916 374.97467 366.28159C377.12 375.10693 373.7085 384.42026 366.43958 389.54382C342.64307 406.31958 309.86981 413.87875 287.92841 413.87875C285.09741 413.87875 282.61133 413.73154 280.31876 413.48755C278.41739 413.29404 276.76001 412.46115 275.49384 411.1445L252.23158 387.5415C251.89085 387.20078 251.54591 386.81378 251.25566 386.3721C249.93901 384.32352 249.54781 381.93417 250.08624 379.6416C254.32645 361.99091 252.13484 344.92068 243.79324 330.29031C239.25858 327.56024 234.42944 325.22141 229.36055 323.3663C218.87361 355.11319 207.26772 379.15787 192.97806 398.80667C173.569 425.43417 150.01651 442.69788 120.99969 451.67044C108.90584 455.42691 97.253677 457.32828 86.278778 457.32828C66.676231 457.32828 49.60603 450.93851 38.197853 439.33261L14.885123 415.68338L14.885123 415.6329L14.885123 415.58243C10.594438 411.24545 7.1829209 406.2691 4.6926403 400.75851C-5.5461149 377.79071 1.1843734 348.67715 22.785034 322.83209C46.291264 294.79117 79.649246 275.62613 122.07236 265.77435L99.542046 242.90332C90.619942 233.88026 85.988525 222.12715 86.18203 208.91435C86.42601 188.57986 93.934708 170.58423 107.83317 156.83299C122.56032 142.24887 144.50592 133.23001 165.08438 133.23001C179.03333 133.23001 190.73596 137.32719 198.10164 144.83591L198.1479 144.78542L216.97224 163.95049C224.62817 150.88072 232.48181 141.03317 240.86967 133.96196C252.03387 124.50141 262.7648 119.47879 271.88461 119.47879C277.3952 119.47879 282.17386 121.38015 285.68213 124.9389L286.17007 125.47313L308.99484 148.58815C309.33557 148.93309 309.72678 149.37057 310.0675 149.76178C314.98499 155.75191 316.49933 165.19563 314.41287 177.16748C314.70734 177.29369 314.6106 177.25162 314.90506 177.37361C321.48831 167.24843 331.4957 161.51489 342.49585 161.51489C351.27493 161.51489 359.75955 165.1199 366.04834 171.45918L384.38474 190.03955C384.72968 189.79556 385.11667 189.55159 385.50787 189.26134C388.04443 181.60541 393.31104 166.33981 397.69849 154.19969C401.30771 144.10396 409.11087 140.73872 415.45013 138.93411C416.32932 138.7406 419.05936 138.10541 421.74313 137.91191C423.05978 137.81096 424.27548 137.81096 425.44913 137.81096C432.22589 137.81096 437.29898 139.47255 440.517 142.73683L454.41547 156.83299C455.9256 152.78209 457.3895 148.73538 458.80289 144.93265L460.11954 141.27295C462.55936 134.79065 470.45926 127.66895 479.57907 126.98749C490.01553 126.35229 497.03629 128.15691 501.42371 132.59483L501.47418 132.54434L501.91168 133.0323L516.00781 147.32198C517.66522 142.20259 519.41937 136.83923 521.17346 131.13095C524.00452 122.20884 530.44055 116.74453 540.24182 114.84316C542.58484 114.40569 545.07092 114.16171 547.51074 114.16171C550.14404 114.16171 554.04352 114.40569 557.74951 115.62558L534.63446 92.165627L534.63446 92.119354C528.00073 85.388863 524.39148 76.222778 524.73645 66.661278C525.35901 45.80518 544.01086 29.054676 565.24976 31.376696C573.59137 32.289516 581.22205 36.517105 587.10706 42.490414L609.39337 65.100647C611.58917 67.346947 613.49054 69.883499 615.00067 72.613556C620.65851 59.203056 633.38757 45.4981 649.28412 45.4981C655.4762 45.4981 661.13397 47.841152 665.18073 52.13184L665.2312 52.13184L688.29572 75.537109C690.92902 78.220894 692.88086 81.586136 694.05029 85.582367C697.48285 82.650398 700.73029 77.030441 702.1311 73.147789C702.48865 72.155045 702.02173 71.010857 700.99951 70.766876C691.18561 68.432243 671.75977 56.687538 673.71582 35.743099C673.72003 35.692619 673.71582 35.646347 673.71582 35.600075C674.35101 15.947051 690.73553 0 710.33807 0C719.79858 0 728.62396 3.7059751 735.16095 10.385984L758.42322 33.988964C765.10321 40.769932 768.61566 49.788788 768.32123 59.396561C768.17401 63.884953 767.10132 68.907578 766.1759 72.075119C759.93335 93.532753 743.79279 112.01636 730.62628 120.74496C729.30963 121.72088 727.26105 122.40234 725.40594 122.40234C724.13977 122.40234 722.97034 122.11209 721.94397 121.57365C720.87128 121.03942 719.84906 120.50098 718.48193 119.47879L717.70374 118.8436L695.66138 96.410042C696.0484 109.72379 693.90308 122.49909 689.12439 135.27861C710.09412 143.71275 728.18646 155.6131 742.96411 170.63049L743.01038 170.63049L766.32312 194.33444C785.04651 213.30179 793.72882 232.42059 797.28754 242.12511C799.14264 247.34123 797.28754 253.38606 792.75287 256.80179" fill-rule="evenodd"></path>
  <path fill="#FFFDE6" transform="translate(540.24 37.4874)" d="M30.191877 0C46.378704 0 59.095119 13.120246 58.598743 29.30707C58.106579 45.493893 44.582504 58.61414 28.395679 58.61414C12.234094 58.61414 -0.48232239 45.493893 0.01405111 29.30707C0.51042461 13.120246 14.030293 0 30.191877 0" fill-rule="evenodd"></path>
  <path fill="#FFFDE6" transform="translate(15.5101 125.818)" d="M222.60614 76.416283C222.25699 77.274422 222.95528 78.11573 223.76294 78.11573C223.98167 78.11573 224.20462 78.052635 224.41916 77.913818C237.46368 69.290375 247.58046 57.739178 255.8253 43.319107C258.71942 38.245998 259.30832 34.056271 258.35764 31.422968C257.67197 29.496365 256.16183 28.398455 254.13426 28.398455C250.39885 28.398455 244.90088 32.11705 239.50807 41.215828C233.62311 51.219017 227.87274 62.984753 222.60614 76.416283M127.60108 224.2767C143.70799 213.47426 157.49287 187.69649 168.18593 162.01547C167.70218 162.01547 167.24367 161.99023 166.78514 161.99023C164.38321 161.99023 161.96443 162.08278 159.51201 162.24684C158.63284 162.30573 157.75368 162.37303 156.86609 162.44875C116.94167 166.00328 90.347832 197.33792 87.617775 210.79469C86.612411 215.63223 87.277046 220.73058 89.594856 224.82776C92.295471 229.61902 97.246582 233.03474 104.41035 233.03474C110.53509 233.03474 118.27094 230.54025 127.60108 224.2767M339.20343 218.40434C339.53156 219.74203 339.68298 221.10495 339.66043 222.45946C339.57782 227.2928 337.30627 231.99573 333.21329 234.88142C310.50632 250.9084 278.79309 258.01749 258.35345 258.01749C255.89682 258.01749 253.60423 257.9165 251.50517 257.7146C250.45354 257.58841 249.81413 256.70084 249.86882 255.70387C251.30325 249.58333 252.05202 244.03069 252.2287 238.64629C253.38129 203.50893 230.20317 175.73305 195.67998 165.90654C177.54552 223.28395 149.3027 277.6705 89.569618 296.12888C77.652451 299.8096 66.652306 301.48801 56.73325 301.48801C51.163773 301.48801 45.939228 300.95798 41.089073 299.95682C-1.8430308 291.06839 -15.510129 245.0739 21.305643 201.03548C58.44532 156.67735 117.48853 140.27179 177.20479 138.91728C179.42165 132.75888 181.43658 126.88653 183.24539 121.54842C174.70609 124.27847 165.85129 126.28078 156.89975 127.41656C151.87712 128.06857 147.06061 128.38406 142.49649 128.38406C134.97517 128.38406 128.10587 127.53014 121.95589 125.93585C98.941826 119.96675 85.947777 103.65372 86.187553 83.083672C86.797501 36.584412 127.50854 13.747023 158.69174 13.751229C164.13081 13.751229 169.27542 14.445311 173.86899 15.829268C184.32228 18.984184 191.91512 25.710464 193.54726 35.949223C193.57249 36.508694 193.1266 36.891491 192.67229 36.891491C192.32735 36.870457 191.98241 36.857838 191.63748 36.849422C191.22945 36.841011 190.82561 36.832596 190.42178 36.832596C185.8829 36.832596 181.63429 37.522472 177.72218 38.750786C171.68999 40.774139 167.09222 43.495781 163.23482 46.810547C157.08482 52.102394 152.84042 58.837086 150.91801 65.567574C147.09846 79.024345 152.5712 92.481117 171.1221 94.104843C172.36304 94.214218 173.65866 94.268906 175.02158 94.268906C176.82619 94.268906 178.74438 94.167946 180.76773 93.957619C184.70508 93.545372 188.96631 92.746132 193.63559 91.492577C203.89958 63.224525 218.47108 29.933847 238.58684 12.947777C248.90552 4.2486205 258.28613 0 265.46252 0C269.59335 0 272.98383 1.4134026 275.38156 4.2107615C278.51965 7.8830843 279.96252 13.927904 279.14224 22.265297C278.9866 23.859581 278.74683 25.537996 278.42291 27.300543C272.15515 60.687973 245.85576 91.130814 211.29471 109.70696C210.0033 114.03551 208.77919 118.50287 207.64763 123.09222C206.27629 128.45558 204.8755 133.89465 203.40741 139.32951C212.86375 139.66605 222.18968 140.46529 231.36418 141.5043C284.47195 147.64168 329.77234 180.08684 339.20343 218.40434" fill-rule="evenodd"></path>
  <path fill="#FFFDE6" transform="translate(689.261 6.34541)" d="M30.153358 0C46.340183 0 59.081837 13.095006 58.585464 29.28183C58.450855 33.702919 57.294052 38.317513 56.700928 40.324039C50.92112 60.229458 36.046741 77.337517 23.666849 85.548714C23.372391 85.767456 22.665689 86.011436 22.085184 86.011436L21.508886 85.91468C20.671782 85.502441 19.935635 85.11544 18.921856 84.366669C18.804071 84.274124 18.640017 84.080627 18.652636 83.807198C18.661049 83.643143 18.728354 83.449638 18.909235 83.230904C24.987707 75.242653 27.658871 68.503754 27.827133 63.531605C27.894438 61.588173 27.578945 59.913967 26.935343 58.538422C24.596498 58.441669 22.40909 58.033634 20.301605 57.427891L19.700068 57.28487C8.1656933 53.658817 -0.091774091 42.545097 0.00077012472 29.28183C0.49293709 13.095006 13.991773 0 30.153358 0" fill-rule="evenodd"></path>
  <path fill="#FFFDE6" transform="translate(273.924 51.8149)" d="M87.972504 154.88957C88.287994 154.88957 88.599281 154.86433 88.914772 154.86433C88.961044 151.82298 88.632935 149.13921 88.001953 146.84242C86.386635 141.11731 82.020233 138.58075 78.179642 138.58075C73.998329 138.58075 70.426964 141.6263 71.836159 146.84242C73.291626 152.23103 79.588844 154.88957 87.972504 154.88957M357.3645 128.5313C360.50259 124.01345 360.86435 120.02564 359.90527 115.79805C357.45285 116.25657 355.13925 116.88755 353.13272 117.63631C347.87872 119.59236 344.21902 122.36869 342.2756 124.25323C338.11951 128.24104 336.18451 131.52637 335.70074 133.91989C335.06555 137.17998 337.24036 138.82474 340.59717 138.82474C345.38004 138.82474 352.56482 135.4637 357.3645 128.5313M370.11038 64.99128C382.65433 49.115738 383.88263 34.981712 384.03406 30.10211C384.17288 25.537996 381.70786 22.370461 378.54453 22.370461C375.28021 22.370461 371.28821 25.777771 368.70117 34.523197C365.81967 44.139385 365.47894 56.872627 367.2457 64.629517C367.41818 65.378281 367.93979 65.761078 368.56656 65.761078C369.07135 65.761078 369.63504 65.521301 370.11038 64.99128M71.335579 192.43307C78.861107 187.26321 84.077232 178.00879 86.752602 168.66183C73.998329 168.56508 63.082317 164.53099 56.663116 158.00662C44.266396 167.5513 43.349369 181.75684 43.929874 188.76076C44.379974 194.53635 48.935673 198.13716 55.481071 198.13716C60.024151 198.13716 65.559982 196.39565 71.335579 192.43307M503.24362 168.85533C504.22375 171.48863 503.1637 174.58046 500.88797 176.31776C488.07059 186.19896 469.3472 190.16153 453.95541 190.16153C446.46777 190.16153 439.77933 189.21927 434.92496 187.55347C434.25613 187.33473 433.78922 186.73318 433.64197 186.05594C424.48431 144.28484 410.25354 131.62311 398.21436 125.55726C385.6662 150.418 363.02231 161.5822 342.07788 161.5822C331.17871 161.5822 320.76328 158.56189 312.48056 152.88304C292.21759 170.78615 275.00858 179.70404 261.06805 179.70404C253.60141 179.70404 247.06021 177.14224 241.51598 171.99342C240.97754 171.46339 240.28346 171.22362 239.6062 171.22362C238.76068 171.22362 237.92778 171.60641 237.32625 172.33415C226.7047 185.42915 214.05559 192.23958 201.87761 192.23958C194.62971 192.23958 187.57532 189.85025 181.20239 184.92017C180.77753 184.60468 180.25171 184.46165 179.72168 184.46165C178.94768 184.46165 178.14001 184.77715 177.56793 185.37868C164.38037 198.64195 151.08345 204.46803 140.18427 204.46803C131.56084 204.46803 124.42651 200.7957 120.10638 194.29659C115.57592 187.5787 116.75375 175.18199 120.69951 159.89116C113.77551 163.58873 109.0179 165.90654 102.25797 167.26105C94.770302 195.67212 70.103058 224.85721 39.033443 224.85721C35.819633 224.85721 32.542728 224.5417 29.202723 223.88969C15.565071 221.21011 1.2711964 213.04099 0.12701333 193.54361C-1.8584807 160.54318 19.582331 133.31415 54.046638 131.38333C59.956848 120.55988 68.937843 116.04203 77.687477 116.04203C90.997017 116.04203 103.77232 126.55 104.35704 141.38232C104.83238 144.81487 104.93755 148.43671 104.67673 152.23103C112.13496 150.0352 119.23141 146.40915 126.147 141.38232C128.14931 135.1524 134.0385 117.99808 138.9223 104.44456C141.29901 97.894951 145.78319 95.118629 152.38748 93.234093C152.87544 93.086861 155.15961 92.603104 157.41011 92.434845C158.57533 92.338097 159.63959 92.317062 160.62813 92.317062C172.9281 92.317062 173.67265 98.668961 172.69673 101.44949C164.70428 124.13544 159.47552 139.49779 155.57605 152.37825C151.41156 166.0748 156.02194 171.72841 162.03732 171.72841C167.18614 171.72841 173.35295 167.59756 175.97363 160.83344C180.70181 148.51244 192.40865 115.67606 201.33496 91.589325C202.99655 87.142998 208.9993 81.95211 215.22501 81.514626C216.50801 81.417877 217.74052 81.371605 218.8763 81.371605C232.84206 81.371605 235.4375 88.013756 233.78433 92.338097C224.66452 116.45007 219.01511 131.33286 215.38907 143.1701C211.47276 155.83183 214.87166 161.62846 220.50003 161.62846C224.12608 161.62846 228.66916 159.21391 232.79579 154.67082C241.49495 145.07988 254.18613 107.75512 262.51511 81.127625C264.71091 74.098473 269.52744 70.64489 276.67438 69.244102C278.52106 68.878136 280.58224 68.684631 282.70657 68.684631C290.32043 68.684631 298.26242 71.20015 296.23904 77.287041C288.60416 100.21697 282.23544 118.88987 278.27286 132.22885C274.07471 146.31241 276.99405 152.6685 283.39645 152.6685C288.1835 152.6685 294.90979 149.13921 302.09036 142.66531C299.83987 139.59453 298.0647 136.11571 296.82797 132.32561C288.22977 106.08511 308.58951 81.95211 346.82709 77.383789C345.38425 64.579033 346.88599 47.908459 355.41687 24.932253C361.39438 8.8169394 373.98462 0 384.47156 0C393.31372 0 400.61209 6.2551475 401.21362 19.690886C402.12646 40.492302 396.36349 59.821423 384.8165 78.713058C388.08499 79.268326 391.44601 79.970818 394.92484 80.765862C457.31226 95.50563 491.28018 135.75395 503.24362 168.85533" fill-rule="evenodd"></path>
</svg>
